<svg xmlns="http://www.w3.org/2000/svg" width="48" height="48" viewBox="0 0 48 48" fill="none">
  <rect width="48" height="48" rx="14" fill="#047857"/>
  <path d="M18.2 14.7 21 9.8a3.3 3.3 0 0 1 5.8 0l2.8 4.9" stroke="#DCFCE7" stroke-width="3.2" stroke-linecap="round" stroke-linejoin="round"/>
  <path d="m27.4 13.5 3.8 1-1 3.8" stroke="#DCFCE7" stroke-width="3.2" stroke-linecap="round" stroke-linejoin="round"/>
  <path d="M35.5 25.7 38.3 30.6a3.3 3.3 0 0 1-2.9 5H29.8" stroke="#DCFCE7" stroke-width="3.2" stroke-linecap="round" stroke-linejoin="round"/>
  <path d="m31.5 32.3-2.8 2.8 2.8 2.8" stroke="#DCFCE7" stroke-width="3.2" stroke-linecap="round" stroke-linejoin="round"/>
  <path d="M18.3 35.6h-5.7a3.3 3.3 0 0 1-2.9-5l2.9-4.9" stroke="#DCFCE7" stroke-width="3.2" stroke-linecap="round" stroke-linejoin="round"/>
  <path d="m12.1 29.4 1-3.8 3.8 1" stroke="#DCFCE7" stroke-width="3.2" stroke-linecap="round" stroke-linejoin="round"/>
</svg>
